<svg width="64" height="40" viewBox="0 0 64 40" fill="none" xmlns="http://www.w3.org/2000/svg">
<path fill-rule="evenodd" clip-rule="evenodd" d="M32 35.2223C28.6106 38.2015 24.2141 40 19.4098 40C8.69008 40 0 31.0457 0 20C0 8.9543 8.69008 0 19.4098 0C24.2141 0 28.6106 1.7985 32 4.77773C35.3894 1.7985 39.7859 0 44.5902 0C55.3099 0 64 8.95431 64 20C64 31.0457 55.3099 40 44.5902 40C39.7859 40 35.3894 38.2015 32 35.2223Z" fill="#ED0006"/>
<path fill-rule="evenodd" clip-rule="evenodd" d="M32 35.2223C36.1734 31.5539 38.8197 26.0954 38.8197 20C38.8197 13.9046 36.1734 8.4461 32 4.77773C35.3894 1.7985 39.7859 0 44.5902 0C55.3099 0 64 8.95431 64 20C64 31.0457 55.3099 40 44.5902 40C39.7859 40 35.3894 38.2015 32 35.2223Z" fill="#F9A000"/>
<path fill-rule="evenodd" clip-rule="evenodd" d="M32.0001 35.2222C36.1734 31.5539 38.8197 26.0954 38.8197 20C38.8197 13.9047 36.1734 8.4462 32.0001 4.77783C27.8268 8.4462 25.1805 13.9047 25.1805 20C25.1805 26.0954 27.8268 31.5539 32.0001 35.2222Z" fill="#FF5E00"/>
</svg>
