<svg width="114" height="36" viewBox="0 0 114 36" fill="none" xmlns="http://www.w3.org/2000/svg">
<path fill-rule="evenodd" clip-rule="evenodd" d="M28.5012 35.7196H18.6352L11.2369 7.79181C10.8858 6.50713 10.1402 5.3714 9.04342 4.83612C6.30634 3.49093 3.29026 2.42037 0 1.88043V0.80521H15.8933C18.0868 0.80521 19.732 2.42037 20.0062 4.29618L23.8448 24.4414L33.706 0.80521H43.2978L28.5012 35.7196ZM48.7815 35.7196H39.4639L47.1364 0.80521H56.454L48.7815 35.7196ZM68.5087 10.4776C68.7829 8.5971 70.4281 7.52188 72.3474 7.52188C75.3634 7.25191 78.6489 7.79185 81.3908 9.13238L83.0359 1.61516C80.294 0.539937 77.278 0 74.5409 0C65.4975 0 58.9169 4.83616 58.9169 11.5481C58.9169 16.6543 63.5781 19.3353 66.8684 20.9505C70.4281 22.561 71.799 23.6362 71.5248 25.2467C71.5248 27.6625 68.7829 28.7377 66.0458 28.7377C62.7556 28.7377 59.4653 27.9324 56.454 26.5872L54.8089 34.1091C58.0992 35.4497 61.6588 35.9896 64.9491 35.9896C75.0893 36.2549 81.3908 31.4234 81.3908 24.1715C81.3908 15.0391 68.5087 14.5038 68.5087 10.4776ZM114 35.7196L106.602 0.80521H98.655C97.0099 0.80521 95.3648 1.88043 94.8164 3.49093L81.1166 35.7196H90.7084L92.6229 30.6181H104.408L105.505 35.7196H114ZM100.026 10.2075L102.763 23.3662H95.0906L100.026 10.2075Z" fill="#172B85"/>
</svg>
